<svg width="28" height="29" viewBox="0 0 28 29" fill="none" xmlns="http://www.w3.org/2000/svg">
<g filter="url(#filter0_d_3_100)">
<path d="M14 0.281219C11.6254 0.28132 9.32843 1.14771 7.51993 2.72536C5.71143 4.30301 4.50947 6.48898 4.1291 8.89212C3.74873 11.2953 4.21478 13.7588 5.44387 15.8418C6.67295 17.9249 8.58485 19.4916 10.8375 20.2616C11.3375 20.3513 11.525 20.0437 11.525 19.7746C11.525 19.5311 11.5125 18.7237 11.5125 17.865C8.99997 18.3392 8.34997 17.237 8.14997 16.6603C7.92804 16.0994 7.57624 15.6023 7.12497 15.212C6.77497 15.0198 6.27497 14.5456 7.11246 14.5328C7.43224 14.5684 7.73895 14.6825 8.0066 14.8654C8.27424 15.0483 8.49493 15.2947 8.64997 15.5837C8.78674 15.8356 8.97065 16.0574 9.19116 16.2363C9.41167 16.4152 9.66444 16.5477 9.935 16.6263C10.2056 16.7049 10.4886 16.728 10.7678 16.6942C11.0471 16.6604 11.3171 16.5705 11.5624 16.4296C11.6057 15.9083 11.8323 15.421 12.2 15.0583C9.97497 14.802 7.64997 13.9176 7.64997 9.99589C7.63591 8.9769 8.00265 7.99101 8.67497 7.24042C8.36925 6.35479 8.40502 5.38288 8.77497 4.5234C8.77497 4.5234 9.61244 4.25425 11.525 5.57432C13.1613 5.11291 14.8887 5.11291 16.525 5.57432C18.4374 4.24144 19.275 4.5234 19.275 4.5234C19.645 5.38287 19.6807 6.3548 19.375 7.24042C20.0493 7.98973 20.4164 8.97648 20.4 9.99589C20.4 13.9304 18.0624 14.802 15.8375 15.0583C16.0761 15.3063 16.2599 15.604 16.3764 15.9313C16.4929 16.2586 16.5393 16.6078 16.5125 16.9551C16.5125 18.3264 16.5 19.4286 16.5 19.7746C16.5 20.0438 16.6875 20.3642 17.1875 20.2616C19.4361 19.4854 21.3425 17.915 22.5664 15.8309C23.7902 13.7467 24.2518 11.2845 23.8688 8.88366C23.4858 6.48285 22.2831 4.29972 20.4754 2.72399C18.6677 1.14826 16.3727 0.282486 14 0.281219V0.281219Z" fill="#F5F5F5"/>
</g>
<defs>
<filter id="filter0_d_3_100" x="-6.10352e-05" y="0.281219" width="28.0001" height="28" filterUnits="userSpaceOnUse" color-interpolation-filters="sRGB">
<feFlood flood-opacity="0" result="BackgroundImageFix"/>
<feColorMatrix in="SourceAlpha" type="matrix" values="0 0 0 0 0 0 0 0 0 0 0 0 0 0 0 0 0 0 127 0" result="hardAlpha"/>
<feOffset dy="4"/>
<feGaussianBlur stdDeviation="2"/>
<feComposite in2="hardAlpha" operator="out"/>
<feColorMatrix type="matrix" values="0 0 0 0 0 0 0 0 0 0 0 0 0 0 0 0 0 0 0.25 0"/>
<feBlend mode="normal" in2="BackgroundImageFix" result="effect1_dropShadow_3_100"/>
<feBlend mode="normal" in="SourceGraphic" in2="effect1_dropShadow_3_100" result="shape"/>
</filter>
</defs>
</svg>
